# xmcd
#
# Track frame offsets:
#	150
#	18370
#	47630
#	67193
#	91593
#	117451
#	139665
#	160743
#	188359
#	204443
#	228071
#	248423
#
# Disc length: 3493 seconds
#
# Revision: 1
# Processed by: cddbd v1.5.1PL0 Copyright (c) Steve Scherf et al.
# Submitted via: audiograbber 1.81.02
#
DISCID=8c0da30c
DTITLE=Geraldine Latty - Lieve Worship From Focusfest 2005 - Perfect Love (www.
DTITLE=gerth.de)
DYEAR=2005
DGENRE=Chorus
TTITLE0=Almighty God My Redeemer
TTITLE1=When I Was Lost
TTITLE2=Everlasting God
TTITLE3=Jesus Christ Perfect Love
TTITLE4=Would You Be Free
TTITLE5=Jesus Hope Of The Nations
TTITLE6=Jesus I Could Sing
TTITLE7=The Lord Is Gracious And Compassionate
TTITLE8=Immortal Invisible
TTITLE9=Faithful One
TTITLE10=Hungry
TTITLE11=None Other
EXTD=
EXTT0=
EXTT1=
EXTT2=
EXTT3=
EXTT4=
EXTT5=
EXTT6=
EXTT7=
EXTT8=
EXTT9=
EXTT10=
EXTT11=
PLAYORDER=
